<svg xmlns="http://www.w3.org/2000/svg" xmlns:xlink="http://www.w3.org/1999/xlink" viewBox="0,0,256,256" width="48px" height="48px"><g fill="#94d82d" fill-rule="nonzero" stroke="none" stroke-width="1" stroke-linecap="butt" stroke-linejoin="miter" stroke-miterlimit="10" stroke-dasharray="" stroke-dashoffset="0" font-family="none" font-weight="none" font-size="none" text-anchor="none" style="mix-blend-mode: normal"><g transform="scale(5.12,5.12)"><path d="M23.96875,4c-0.44531,0.01563 -0.83203,0.32422 -0.9375,0.75781c0,0 -1.5,6.03906 -4.84766,13.39063c-3.34766,7.35156 -8.54687,15.95703 -15.76172,21.03516c-0.26562,0.1875 -0.42187,0.49219 -0.42187,0.81641v4.77734c-0.09375,0.39844 0.06641,0.81641 0.40625,1.05078c0.02344,0.01953 0.05078,0.03516 0.07813,0.05078c0.01563,0.00781 0.03516,0.01563 0.05078,0.02734c0.01172,0.00391 0.02734,0.01172 0.03906,0.01563c0,0.00391 0.00391,0.00391 0.00391,0.00391c0.23828,0.10156 0.50391,0.11328 0.74609,0.02344c0.17969,-0.04687 11.02344,-2.94922 22.67578,-2.94922c11.75,0 20.6875,2.94922 20.6875,2.94922c0.30469,0.10156 0.63672,0.05078 0.89844,-0.13672c0.26172,-0.19141 0.41406,-0.49219 0.41406,-0.8125v-27c0,-0.26953 -0.10937,-0.52734 -0.30469,-0.71875c-0.19141,-0.1875 -0.45312,-0.28906 -0.72656,-0.28125c-0.28906,0.00781 -0.56641,0.14453 -0.75,0.375c-2.76562,3.42969 -5.91016,6.38672 -9.21875,8.9375v-15.3125c0,-0.26953 -0.10937,-0.52734 -0.30469,-0.71875c-0.19141,-0.1875 -0.45312,-0.28906 -0.72656,-0.28125c-0.41797,0.01172 -0.78516,0.28516 -0.91797,0.6875c0,0 -0.54687,1.67578 -2.30078,4.48438c-1.53906,2.46094 -3.98828,5.73828 -7.75,9.33203v-19.50391c0,-0.26953 -0.10937,-0.52734 -0.30469,-0.71484c-0.19141,-0.19141 -0.45312,-0.29297 -0.72656,-0.28516zM23,11.26953v15.33594c-0.02734,0.13281 -0.02734,0.27344 0,0.41016v6.28125c-1.08984,0.29297 -10.59766,3.0625 -19,9.76172v-2.60937c7.45703,-5.44922 12.64844,-14.09766 16.00391,-21.47266c1.36328,-2.99219 2.20703,-5.4375 2.99609,-7.70703zM35,15.14063v12.98438c-0.02734,0.12891 -0.02734,0.26172 0,0.39063v8.48438c-2.06641,-0.03906 -12.80859,-0.08984 -23.14062,3.08203c6.5,-3.56641 12.39063,-5.11328 12.39063,-5.11328c0.44141,-0.11328 0.75,-0.51172 0.75,-0.96875v-6.77734c4.66797,-4.20312 7.64063,-8.10547 9.44531,-10.99219c0.41016,-0.65625 0.25781,-0.54297 0.55469,-1.08984zM46,20.53125v23.19141c-1.70312,-0.52344 -9.21094,-2.72266 -20,-2.72266c-5.02734,0 -9.84375,0.53125 -13.81641,1.14453c11.27734,-3.44141 23.78516,-3.14453 23.78516,-3.14453c0.26953,0.00781 0.53125,-0.09375 0.72656,-0.28125c0.19531,-0.1875 0.30469,-0.44922 0.30469,-0.71875v-9.20312c3.1875,-2.34766 6.20703,-5.14062 9,-8.26562z"></path></g></g></svg>